<mxfile host="Electron" agent="Mozilla/5.0 (Windows NT 10.0; Win64; x64) AppleWebKit/537.36 (KHTML, like Gecko) draw.io/26.0.16 Chrome/132.0.6834.196 Electron/34.2.0 Safari/537.36" version="26.0.16">
  <diagram name="Page-1" id="haRoowaJrmd0CztlEHsv">
    <mxGraphModel dx="1290" dy="629" grid="1" gridSize="10" guides="1" tooltips="1" connect="1" arrows="1" fold="1" page="1" pageScale="1" pageWidth="1654" pageHeight="1169" math="0" shadow="0">
      <root>
        <mxCell id="0" />
        <mxCell id="1" parent="0" />
        <mxCell id="uTc8lj3A9RX-na4-O3cH-1" value="q0" style="ellipse;whiteSpace=wrap;html=1;aspect=fixed;" parent="1" vertex="1">
          <mxGeometry x="340" y="300" width="80" height="80" as="geometry" />
        </mxCell>
        <mxCell id="uTc8lj3A9RX-na4-O3cH-2" value="" style="endArrow=classic;html=1;rounded=0;exitX=1;exitY=0.5;exitDx=0;exitDy=0;" parent="1" source="uTc8lj3A9RX-na4-O3cH-1" edge="1">
          <mxGeometry relative="1" as="geometry">
            <mxPoint x="800" y="430" as="sourcePoint" />
            <mxPoint x="570" y="340" as="targetPoint" />
          </mxGeometry>
        </mxCell>
        <mxCell id="uTc8lj3A9RX-na4-O3cH-3" value="eps" style="edgeLabel;resizable=0;html=1;;align=center;verticalAlign=middle;" parent="uTc8lj3A9RX-na4-O3cH-2" connectable="0" vertex="1">
          <mxGeometry relative="1" as="geometry" />
        </mxCell>
        <mxCell id="uTc8lj3A9RX-na4-O3cH-4" value="q1" style="ellipse;whiteSpace=wrap;html=1;aspect=fixed;" parent="1" vertex="1">
          <mxGeometry x="570" y="300" width="80" height="80" as="geometry" />
        </mxCell>
        <mxCell id="uTc8lj3A9RX-na4-O3cH-5" value="" style="endArrow=classic;html=1;rounded=0;exitX=1;exitY=0.5;exitDx=0;exitDy=0;" parent="1" source="uTc8lj3A9RX-na4-O3cH-4" edge="1">
          <mxGeometry relative="1" as="geometry">
            <mxPoint x="690" y="410" as="sourcePoint" />
            <mxPoint x="780" y="340" as="targetPoint" />
          </mxGeometry>
        </mxCell>
        <mxCell id="uTc8lj3A9RX-na4-O3cH-6" value="b" style="edgeLabel;resizable=0;html=1;;align=center;verticalAlign=middle;" parent="uTc8lj3A9RX-na4-O3cH-5" connectable="0" vertex="1">
          <mxGeometry relative="1" as="geometry" />
        </mxCell>
        <mxCell id="uTc8lj3A9RX-na4-O3cH-7" value="q2" style="ellipse;whiteSpace=wrap;html=1;aspect=fixed;" parent="1" vertex="1">
          <mxGeometry x="780" y="300" width="80" height="80" as="geometry" />
        </mxCell>
        <mxCell id="uTc8lj3A9RX-na4-O3cH-8" value="" style="endArrow=classic;html=1;rounded=0;exitX=1;exitY=0.5;exitDx=0;exitDy=0;" parent="1" source="uTc8lj3A9RX-na4-O3cH-7" edge="1">
          <mxGeometry relative="1" as="geometry">
            <mxPoint x="690" y="410" as="sourcePoint" />
            <mxPoint x="970" y="340" as="targetPoint" />
          </mxGeometry>
        </mxCell>
        <mxCell id="uTc8lj3A9RX-na4-O3cH-9" value="a / b" style="edgeLabel;resizable=0;html=1;;align=center;verticalAlign=middle;" parent="uTc8lj3A9RX-na4-O3cH-8" connectable="0" vertex="1">
          <mxGeometry relative="1" as="geometry" />
        </mxCell>
        <mxCell id="uTc8lj3A9RX-na4-O3cH-10" value="q3" style="ellipse;whiteSpace=wrap;html=1;aspect=fixed;" parent="1" vertex="1">
          <mxGeometry x="970" y="300" width="80" height="80" as="geometry" />
        </mxCell>
        <mxCell id="uTc8lj3A9RX-na4-O3cH-11" value="q3" style="ellipse;whiteSpace=wrap;html=1;aspect=fixed;" parent="1" vertex="1">
          <mxGeometry x="1170" y="300" width="80" height="80" as="geometry" />
        </mxCell>
        <mxCell id="uTc8lj3A9RX-na4-O3cH-12" value="" style="endArrow=classic;html=1;rounded=0;exitX=1;exitY=0.5;exitDx=0;exitDy=0;entryX=0;entryY=0.5;entryDx=0;entryDy=0;" parent="1" source="uTc8lj3A9RX-na4-O3cH-10" target="uTc8lj3A9RX-na4-O3cH-11" edge="1">
          <mxGeometry relative="1" as="geometry">
            <mxPoint x="1160" y="410" as="sourcePoint" />
            <mxPoint x="1260" y="410" as="targetPoint" />
          </mxGeometry>
        </mxCell>
        <mxCell id="uTc8lj3A9RX-na4-O3cH-13" value="a / b" style="edgeLabel;resizable=0;html=1;;align=center;verticalAlign=middle;" parent="uTc8lj3A9RX-na4-O3cH-12" connectable="0" vertex="1">
          <mxGeometry relative="1" as="geometry" />
        </mxCell>
        <mxCell id="uTc8lj3A9RX-na4-O3cH-14" value="" style="endArrow=classic;html=1;rounded=0;exitX=1;exitY=0.5;exitDx=0;exitDy=0;" parent="1" source="uTc8lj3A9RX-na4-O3cH-11" edge="1">
          <mxGeometry relative="1" as="geometry">
            <mxPoint x="1160" y="410" as="sourcePoint" />
            <mxPoint x="1360" y="340" as="targetPoint" />
          </mxGeometry>
        </mxCell>
        <mxCell id="uTc8lj3A9RX-na4-O3cH-15" value="eps" style="edgeLabel;resizable=0;html=1;;align=center;verticalAlign=middle;" parent="uTc8lj3A9RX-na4-O3cH-14" connectable="0" vertex="1">
          <mxGeometry relative="1" as="geometry" />
        </mxCell>
        <mxCell id="uTc8lj3A9RX-na4-O3cH-16" value="" style="ellipse;whiteSpace=wrap;html=1;aspect=fixed;" parent="1" vertex="1">
          <mxGeometry x="1360" y="300" width="80" height="80" as="geometry" />
        </mxCell>
        <mxCell id="uTc8lj3A9RX-na4-O3cH-17" value="" style="endArrow=classic;html=1;rounded=0;exitX=0.5;exitY=1;exitDx=0;exitDy=0;" parent="1" source="uTc8lj3A9RX-na4-O3cH-1" edge="1">
          <mxGeometry relative="1" as="geometry">
            <mxPoint x="740" y="410" as="sourcePoint" />
            <mxPoint x="380" y="540" as="targetPoint" />
          </mxGeometry>
        </mxCell>
        <mxCell id="uTc8lj3A9RX-na4-O3cH-18" value="eps" style="edgeLabel;resizable=0;html=1;;align=center;verticalAlign=middle;" parent="uTc8lj3A9RX-na4-O3cH-17" connectable="0" vertex="1">
          <mxGeometry relative="1" as="geometry" />
        </mxCell>
        <mxCell id="uTc8lj3A9RX-na4-O3cH-19" value="q0" style="ellipse;whiteSpace=wrap;html=1;aspect=fixed;" parent="1" vertex="1">
          <mxGeometry x="340" y="540" width="80" height="80" as="geometry" />
        </mxCell>
        <mxCell id="uTc8lj3A9RX-na4-O3cH-20" value="" style="endArrow=classic;html=1;rounded=0;exitX=1;exitY=0.5;exitDx=0;exitDy=0;" parent="1" source="uTc8lj3A9RX-na4-O3cH-19" edge="1">
          <mxGeometry relative="1" as="geometry">
            <mxPoint x="760" y="550" as="sourcePoint" />
            <mxPoint x="570" y="580" as="targetPoint" />
          </mxGeometry>
        </mxCell>
        <mxCell id="uTc8lj3A9RX-na4-O3cH-21" value="eps" style="edgeLabel;resizable=0;html=1;;align=center;verticalAlign=middle;" parent="uTc8lj3A9RX-na4-O3cH-20" connectable="0" vertex="1">
          <mxGeometry relative="1" as="geometry" />
        </mxCell>
        <mxCell id="uTc8lj3A9RX-na4-O3cH-22" value="q4" style="ellipse;whiteSpace=wrap;html=1;aspect=fixed;" parent="1" vertex="1">
          <mxGeometry x="570" y="540" width="80" height="80" as="geometry" />
        </mxCell>
        <mxCell id="uTc8lj3A9RX-na4-O3cH-23" value="" style="endArrow=classic;html=1;rounded=0;exitX=1;exitY=0.5;exitDx=0;exitDy=0;" parent="1" source="uTc8lj3A9RX-na4-O3cH-22" edge="1">
          <mxGeometry relative="1" as="geometry">
            <mxPoint x="760" y="550" as="sourcePoint" />
            <mxPoint x="780" y="580" as="targetPoint" />
          </mxGeometry>
        </mxCell>
        <mxCell id="uTc8lj3A9RX-na4-O3cH-24" value="a" style="edgeLabel;resizable=0;html=1;;align=center;verticalAlign=middle;" parent="uTc8lj3A9RX-na4-O3cH-23" connectable="0" vertex="1">
          <mxGeometry relative="1" as="geometry" />
        </mxCell>
        <mxCell id="uTc8lj3A9RX-na4-O3cH-25" value="" style="ellipse;whiteSpace=wrap;html=1;aspect=fixed;" parent="1" vertex="1">
          <mxGeometry x="780" y="540" width="80" height="80" as="geometry" />
        </mxCell>
        <mxCell id="uTc8lj3A9RX-na4-O3cH-26" value="" style="endArrow=classic;html=1;rounded=0;entryX=1;entryY=0.5;entryDx=0;entryDy=0;exitX=0;exitY=0.5;exitDx=0;exitDy=0;" parent="1" source="uTc8lj3A9RX-na4-O3cH-30" target="uTc8lj3A9RX-na4-O3cH-25" edge="1">
          <mxGeometry relative="1" as="geometry">
            <mxPoint x="960" y="580" as="sourcePoint" />
            <mxPoint x="860" y="550" as="targetPoint" />
          </mxGeometry>
        </mxCell>
        <mxCell id="uTc8lj3A9RX-na4-O3cH-27" value="eps" style="edgeLabel;resizable=0;html=1;;align=center;verticalAlign=middle;" parent="uTc8lj3A9RX-na4-O3cH-26" connectable="0" vertex="1">
          <mxGeometry relative="1" as="geometry" />
        </mxCell>
        <mxCell id="uTc8lj3A9RX-na4-O3cH-28" value="" style="endArrow=classic;html=1;rounded=0;exitX=0.5;exitY=1;exitDx=0;exitDy=0;" parent="1" source="uTc8lj3A9RX-na4-O3cH-10" edge="1">
          <mxGeometry relative="1" as="geometry">
            <mxPoint x="760" y="550" as="sourcePoint" />
            <mxPoint x="1010" y="540" as="targetPoint" />
          </mxGeometry>
        </mxCell>
        <mxCell id="uTc8lj3A9RX-na4-O3cH-29" value="eps" style="edgeLabel;resizable=0;html=1;;align=center;verticalAlign=middle;" parent="uTc8lj3A9RX-na4-O3cH-28" connectable="0" vertex="1">
          <mxGeometry relative="1" as="geometry" />
        </mxCell>
        <mxCell id="uTc8lj3A9RX-na4-O3cH-30" value="q3" style="ellipse;whiteSpace=wrap;html=1;aspect=fixed;" parent="1" vertex="1">
          <mxGeometry x="970" y="540" width="80" height="80" as="geometry" />
        </mxCell>
        <mxCell id="uTc8lj3A9RX-na4-O3cH-32" value="q5" style="ellipse;whiteSpace=wrap;html=1;aspect=fixed;" parent="1" vertex="1">
          <mxGeometry x="790" y="550" width="60" height="60" as="geometry" />
        </mxCell>
        <mxCell id="uTc8lj3A9RX-na4-O3cH-33" value="q5" style="ellipse;whiteSpace=wrap;html=1;aspect=fixed;" parent="1" vertex="1">
          <mxGeometry x="1370" y="310" width="60" height="60" as="geometry" />
        </mxCell>
        <mxCell id="uTc8lj3A9RX-na4-O3cH-34" value="" style="endArrow=classic;html=1;rounded=0;entryX=0;entryY=0.5;entryDx=0;entryDy=0;" parent="1" target="uTc8lj3A9RX-na4-O3cH-1" edge="1">
          <mxGeometry relative="1" as="geometry">
            <mxPoint x="200" y="340" as="sourcePoint" />
            <mxPoint x="630" y="420" as="targetPoint" />
          </mxGeometry>
        </mxCell>
        <mxCell id="uTc8lj3A9RX-na4-O3cH-35" value="START" style="edgeLabel;resizable=0;html=1;;align=center;verticalAlign=middle;" parent="uTc8lj3A9RX-na4-O3cH-34" connectable="0" vertex="1">
          <mxGeometry relative="1" as="geometry" />
        </mxCell>
      </root>
    </mxGraphModel>
  </diagram>
</mxfile>
